<?xml version="1.0" encoding="utf-8"?>
<!-- Designed by Vexels.com - 2017 All Rights Reserved - https://vexels.com/terms-and-conditions/  -->

<svg version="1.1" id="Layer_1" xmlns="http://www.w3.org/2000/svg" xmlns:xlink="http://www.w3.org/1999/xlink" x="0px" y="0px"
	 width="1200px" height="1200px" viewBox="0 0 1200 1200" enable-background="new 0 0 1200 1200" xml:space="preserve">
<g>
	<path fill="#282727" d="M364.686,634.301l19.984-105.259l26.915,0.654l-20.374,96.342c0,0-4.334,13.676,15.644,11.842
		l-2.606,22.986h-15.251C388.998,660.866,362.922,659.461,364.686,634.301z"/>
	<path fill="#282727" d="M616.922,598.341l-29.435-0.349c0,0,1.814-12.544-12.374-15.073c0,0-23.957-5.429-32.31,18.347
		c0,0-7.683,22.235,13.841,32.685c0,0,19.22,5.762,26.116-13.636h27.625c0,0-1.105,30.149-33.815,38.408
		c0,0-24.701,4.715-40.304-4.679c0,0-22.59-11.485-20.729-45.562c0,0,1.053-35.972,34.868-48.548c0,0,29.83-10.486,49.102,2.135
		C599.508,562.068,618.422,575.395,616.922,598.341z"/>
	<path fill="#282727" d="M639.815,529.395l-26.826,129.328l27.577-0.702l4.025-31.232c0,0,5.434-10.052,14.896-9.31l17.408,41.983
		h30.895l-29.042-59.335l46.855-42.376l-33.412-1.352l-39.25,38.355l12.023-65.358H639.815z"/>
	<path fill="#282727" d="M1054.553,555.656l-3.307,26.915c0,0-20.025-6.826-28.026,8.596c0,0-9.411,12.243-12.332,66.903h-26.915
		c0,0,1.858-79.086,33.857-96.691C1017.831,561.378,1034.89,552.369,1054.553,555.656z"/>
	<path fill="#282727" d="M996.836,555.656l-3.315,26.915c0,0-20.012-6.826-27.974,8.596c0,0-9.418,12.243-12.376,66.903H926.3
		c0,0,1.85-79.086,33.817-96.691C960.117,561.378,977.128,552.369,996.836,555.656z"/>
	<polygon fill="#282727" points="1050.933,555.656 1076.828,555.656 1084.83,620.315 1119.301,556.398 1148.74,556.398 
		1067.723,696.866 1038.606,696.123 1065.561,651.207 	"/>
	<path fill="#282727" d="M365.047,562.811c1.453-26.253-28.377-33.115-28.377-33.115h-61.432l-18.161,93.465
		c-0.405,29.487,22.533,33.769,22.533,33.769h42.166c32.352-8.259,34.916-34.519,34.916-34.519
		c2.169-24.419-16.046-30.101-16.046-30.101C363.936,581.479,365.047,562.811,365.047,562.811z M329.73,616.339
		c0,0-1.013,15.117-21.387,15.819l-26.515-0.702l6.142-29.535l26.953,0.437C314.922,602.358,331.186,604.505,329.73,616.339z
		 M335.919,564.905c0,0-0.311,12.283-16.704,14.077h-26.874l5.483-26.26l22.85-0.353
		C320.675,552.369,337.376,555.302,335.919,564.905z"/>
	<path fill="#282727" d="M920.418,584.404c-7.199-29.102-39.953-28.748-39.953-28.748c-23.953,0-38.853,17.203-38.853,17.203
		c-24.394,26.264-12.681,57.858-12.681,57.858c8.624,30.891,41.815,31.594,41.815,31.594c37.039,1.128,47.902-34.479,47.902-34.479
		l-29.78-1.043c-5.441,11.834-18.122,10.438-18.122,10.438c-17.151-0.75-22.585-17.954-22.585-17.954l76.675-0.401
		C926.698,605.243,920.418,584.404,920.418,584.404z M853.952,596.989c3.31-17.657,22.227-17.657,22.227-17.657
		c17.416,0.743,22.143,17.255,22.143,17.255L853.952,596.989z"/>
	<path fill="#282727" d="M493.4,558.493c0,0-27.719-10.45-52.427,6.814c0,0-13.744,10.089-19.573,25.169h29.784
		c0,0,4.374-11.144,18.566-11.144c0,0,18.205,1.091,14.896,8.608c0,0-4.777,6.465-16.758,6.814c0,0-30.141-0.702-41.409,9.752
		c0,0-11.667,7.552-13.832,21.228c0,0-1.462,19.009,12.376,28.054c0,0,8.71,7.079,24.306,7.821c0,0,14.583-1.056,22.938-11.846
		l2.163,8.961l28.026,0.738c0,0-8.754-5.418,5.03-57.104C507.485,602.358,519.163,567.891,493.4,558.493z M453.083,636.877
		c-14.497,1.003-13.034-10.313-13.034-10.313c-0.221-8.648,18.959-9.739,18.959-9.739c19.087-2.62,21.611-7.953,21.611-7.953
		C475.804,637.703,453.083,636.877,453.083,636.877z"/>
	<path fill="#282727" d="M797.996,592.309c0,0,23.203-10.791,24.712-30.931c0,0-0.754-27.665-27.978-30.94l-61.43-0.305
		l-18.973,95.905c0,0-0.309,27.749,25.466,30.587l38.933,0.305c0,0,29.439-4.242,34.872-30.891
		C813.598,626.038,820.54,600.865,797.996,592.309z M765.6,631.544l-26.032-0.526l6.232-28.708l23.07-0.253
		c0,0,20.065,0.253,18.921,12.837C787.791,614.894,789.203,630.103,765.6,631.544z M793.67,564.303c0,0-2.034,13.764-19.185,14.856
		l-24.001-0.265l5.349-26.301l21.309-0.349C777.141,552.245,794.906,553.774,793.67,564.303z"/>
	<path fill="#282727" d="M122.896,534.873l7.388-31.738h27.538c0,0,16.455,1.686,15.616,13.608c0,0-3.022,18.636-23.341,18.295
		L122.896,534.873z"/>
	<path fill="#282727" d="M58.569,534.873l7.388-31.738h27.538c0,0,16.455,1.686,15.616,13.608c0,0-3.022,18.636-23.341,18.295
		L58.569,534.873z"/>
	<path fill="#282727" d="M50,582.393l7.39-31.738h27.537c0,0,16.461,1.685,15.622,13.608c0,0-3.028,18.636-23.341,18.295L50,582.393
		z"/>
	<path fill="#282727" d="M114.487,582.229l7.39-31.742h27.538c0,0,16.459,1.689,15.62,13.599c0,0-3.026,18.648-23.347,18.307
		L114.487,582.229z"/>
	<path fill="#282727" d="M105.583,631.768l7.394-31.738h27.538c0,0,16.459,1.673,15.616,13.596c0,0-3.021,18.648-23.341,18.307
		L105.583,631.768z"/>
	<path fill="#282727" d="M171.918,612.29l7.39-31.738h27.539c0,0,16.459,1.677,15.616,13.599c0,0-3.022,18.636-23.337,18.307
		L171.918,612.29z"/>
	<path fill="#282727" d="M181.998,563.083l7.388-31.738h27.538c0,0,16.455,1.685,15.616,13.608c0,0-3.022,18.636-23.347,18.295
		L181.998,563.083z"/>
	<path fill="#282727" d="M1135.63,658.555c-7.925,0-14.37-5.799-14.37-12.926c0-7.127,6.445-12.914,14.37-12.914
		s14.37,5.787,14.37,12.914C1150,652.756,1143.555,658.555,1135.63,658.555z M1135.63,635.111c-6.453,0-11.698,4.719-11.698,10.518
		c0,5.803,5.245,10.518,11.698,10.518c6.453,0,11.698-4.715,11.698-10.518C1147.327,639.83,1142.082,635.111,1135.63,635.111z"/>
	<g>
		<path fill="#282727" d="M1131.468,649.939v-9.133h4.502c0.903,0,1.589,0.088,2.063,0.253c0.473,0.157,0.843,0.45,1.128,0.867
			c0.285,0.422,0.425,0.879,0.425,1.377c0,0.642-0.233,1.188-0.702,1.637c-0.466,0.445-1.188,0.731-2.163,0.847
			c0.361,0.157,0.63,0.301,0.815,0.457c0.389,0.321,0.762,0.722,1.116,1.208l1.766,2.488h-1.69l-1.344-1.902
			c-0.393-0.546-0.722-0.963-0.971-1.256c-0.257-0.285-0.481-0.49-0.682-0.606c-0.197-0.116-0.401-0.205-0.606-0.245
			c-0.157-0.028-0.409-0.048-0.75-0.048h-1.561v4.057H1131.468z M1132.813,644.838h2.885c0.614,0,1.095-0.056,1.441-0.173
			c0.349-0.116,0.61-0.293,0.791-0.546c0.177-0.253,0.269-0.526,0.269-0.819c0-0.429-0.172-0.791-0.521-1.063
			c-0.349-0.285-0.895-0.421-1.654-0.421h-3.21V644.838z"/>
	</g>
</g>
</svg>
